<svg width="8" height="12" viewBox="0 0 8 12" fill="none" xmlns="http://www.w3.org/2000/svg">
<path d="M5.00024 5.5699C5.00024 6.12219 5.44796 6.5699 6.00024 6.5699C6.55253 6.5699 7.00024 6.12219 7.00024 5.5699H5.00024ZM1.00024 5.5699C1.00024 6.12219 1.44796 6.5699 2.00024 6.5699C2.55253 6.5699 3.00024 6.12219 3.00024 5.5699H1.00024ZM7.00024 5.5699V3.15823H5.00024V5.5699H7.00024ZM1.00024 3.15823V5.5699H3.00024V3.15823H1.00024ZM4.00024 0.158226C2.34339 0.158226 1.00024 1.50137 1.00024 3.15823H3.00024C3.00024 2.60594 3.44796 2.15823 4.00024 2.15823V0.158226ZM7.00024 3.15823C7.00024 1.50137 5.6571 0.158226 4.00024 0.158226V2.15823C4.55253 2.15823 5.00024 2.60594 5.00024 3.15823H7.00024Z" fill="#AEB5C1"/>
<mask id="path-2-inside-1_0_1" fill="white">
<path fill-rule="evenodd" clip-rule="evenodd" d="M3.26809 4.5483H4.73235C5.91676 4.5483 6.50897 4.5483 6.95574 4.7912C7.29476 4.97552 7.57322 5.25398 7.75754 5.593C8.00044 6.03977 8.00044 6.63198 8.00044 7.81639C8.00044 9.0008 8.00044 9.593 7.75754 10.0398C7.57322 10.3788 7.29476 10.6573 6.95574 10.8416C6.50897 11.0845 5.91676 11.0845 4.73235 11.0845H3.26809C2.08368 11.0845 1.49147 11.0845 1.0447 10.8416C0.705679 10.6573 0.427218 10.3788 0.242898 10.0398C0 9.593 0 9.0008 0 7.81639C0 6.63198 0 6.03977 0.242898 5.593C0.427218 5.25398 0.705679 4.97552 1.0447 4.7912C1.49147 4.5483 2.08368 4.5483 3.26809 4.5483ZM4.00022 7.27197C4.27638 7.27197 4.50025 7.51583 4.50025 7.81665C4.50025 8.11747 4.27638 8.36133 4.00022 8.36133C3.72406 8.36133 3.50019 8.11747 3.50019 7.81665C3.50019 7.51583 3.72406 7.27197 4.00022 7.27197Z"/>
</mask>
<path fill-rule="evenodd" clip-rule="evenodd" d="M3.26809 4.5483H4.73235C5.91676 4.5483 6.50897 4.5483 6.95574 4.7912C7.29476 4.97552 7.57322 5.25398 7.75754 5.593C8.00044 6.03977 8.00044 6.63198 8.00044 7.81639C8.00044 9.0008 8.00044 9.593 7.75754 10.0398C7.57322 10.3788 7.29476 10.6573 6.95574 10.8416C6.50897 11.0845 5.91676 11.0845 4.73235 11.0845H3.26809C2.08368 11.0845 1.49147 11.0845 1.0447 10.8416C0.705679 10.6573 0.427218 10.3788 0.242898 10.0398C0 9.593 0 9.0008 0 7.81639C0 6.63198 0 6.03977 0.242898 5.593C0.427218 5.25398 0.705679 4.97552 1.0447 4.7912C1.49147 4.5483 2.08368 4.5483 3.26809 4.5483ZM4.00022 7.27197C4.27638 7.27197 4.50025 7.51583 4.50025 7.81665C4.50025 8.11747 4.27638 8.36133 4.00022 8.36133C3.72406 8.36133 3.50019 8.11747 3.50019 7.81665C3.50019 7.51583 3.72406 7.27197 4.00022 7.27197Z" fill="#AEB5C1"/>
<path d="M6.95574 4.7912L7.91104 3.0341L7.91104 3.0341L6.95574 4.7912ZM7.75754 5.593L6.00044 6.5483L6.00044 6.5483L7.75754 5.593ZM7.75754 10.0398L6.00044 9.08447L6.00044 9.08448L7.75754 10.0398ZM6.95574 10.8416L7.91104 12.5987L7.91104 12.5987L6.95574 10.8416ZM1.0447 10.8416L0.0894036 12.5987H0.0894041L1.0447 10.8416ZM0.242898 10.0398L-1.5142 10.9951L-1.5142 10.9951L0.242898 10.0398ZM0.242898 5.593L2 6.5483L0.242898 5.593ZM1.0447 4.7912L2 6.5483L1.0447 4.7912ZM4.73235 2.5483H3.26809V6.5483H4.73235V2.5483ZM7.91104 3.0341C7.34496 2.72634 6.77582 2.62776 6.29256 2.58607C5.83471 2.54657 5.28962 2.5483 4.73235 2.5483V6.5483C5.3595 6.5483 5.70272 6.55004 5.94876 6.57126C6.1694 6.5903 6.11975 6.61317 6.00044 6.5483L7.91104 3.0341ZM9.51464 4.63771C9.146 3.95966 8.58908 3.40274 7.91104 3.0341L6.00044 6.5483L6.00044 6.5483L9.51464 4.63771ZM10.0004 7.81639C10.0004 7.25912 10.0022 6.71403 9.96268 6.25618C9.92099 5.77292 9.82241 5.20378 9.51464 4.6377L6.00044 6.5483C5.93557 6.429 5.95844 6.37934 5.97748 6.59998C5.9987 6.84603 6.00044 7.18924 6.00044 7.81639H10.0004ZM9.51464 10.9951C9.82241 10.429 9.92099 9.85985 9.96268 9.3766C10.0022 8.91875 10.0004 8.37365 10.0004 7.81639H6.00044C6.00044 8.44353 5.9987 8.78675 5.97748 9.0328C5.95844 9.25344 5.93557 9.20378 6.00044 9.08447L9.51464 10.9951ZM7.91104 12.5987C8.58908 12.23 9.146 11.6731 9.51464 10.9951L6.00044 9.08448V9.08448L7.91104 12.5987ZM4.73235 13.0845C5.28962 13.0845 5.83471 13.0862 6.29256 13.0467C6.77582 13.005 7.34496 12.9064 7.91104 12.5987L6.00044 9.08448C6.11975 9.01961 6.1694 9.04248 5.94876 9.06151C5.70272 9.08274 5.3595 9.08448 4.73235 9.08448V13.0845ZM3.26809 13.0845H4.73235V9.08448H3.26809V13.0845ZM0.0894041 12.5987C0.655481 12.9064 1.22462 13.005 1.70788 13.0467C2.16573 13.0862 2.71082 13.0845 3.26809 13.0845V9.08448C2.64094 9.08448 2.29772 9.08274 2.05168 9.06151C1.83104 9.04248 1.88069 9.01961 2 9.08448L0.0894041 12.5987ZM-1.5142 10.9951C-1.14556 11.6731 -0.588642 12.23 0.0894036 12.5987L2 9.08448L2 9.08448L-1.5142 10.9951ZM-2 7.81639C-2 8.37365 -2.00173 8.91874 -1.96224 9.3766C-1.92055 9.85985 -1.82197 10.429 -1.5142 10.9951L2 9.08448C2.06487 9.20378 2.042 9.25344 2.02296 9.0328C2.00173 8.78675 2 8.44353 2 7.81639H-2ZM-1.5142 4.63771C-1.82197 5.20378 -1.92055 5.77292 -1.96224 6.25618C-2.00173 6.71403 -2 7.25912 -2 7.81639H2C2 7.18924 2.00173 6.84603 2.02296 6.59998C2.042 6.37934 2.06487 6.42899 2 6.5483L-1.5142 4.63771ZM0.0894042 3.0341C-0.588642 3.40274 -1.14556 3.95966 -1.5142 4.63771L2 6.5483L0.0894042 3.0341ZM3.26809 2.5483C2.71082 2.5483 2.16573 2.54657 1.70788 2.58607C1.22462 2.62776 0.655481 2.72634 0.0894041 3.0341L2 6.5483C1.88069 6.61317 1.83104 6.5903 2.05168 6.57126C2.29772 6.55004 2.64094 6.5483 3.26809 6.5483V2.5483ZM6.50025 7.81665C6.50025 6.57575 5.53855 5.27197 4.00022 5.27197V9.27197C3.0142 9.27197 2.50025 8.45592 2.50025 7.81665H6.50025ZM4.00022 10.3613C5.53855 10.3613 6.50025 9.05756 6.50025 7.81665H2.50025C2.50025 7.17739 3.0142 6.36133 4.00022 6.36133V10.3613ZM1.50019 7.81665C1.50019 9.05756 2.46189 10.3613 4.00022 10.3613V6.36133C4.98624 6.36133 5.50019 7.17739 5.50019 7.81665H1.50019ZM4.00022 5.27197C2.46189 5.27197 1.50019 6.57575 1.50019 7.81665H5.50019C5.50019 8.45592 4.98624 9.27197 4.00022 9.27197V5.27197Z" fill="#AEB5C1" mask="url(#path-2-inside-1_0_1)"/>
</svg>
